<svg width="27" height="32" viewBox="0 0 27 32" fill="none" xmlns="http://www.w3.org/2000/svg">
<path d="M16.8415 22.2143V25.9821C16.8415 26.7797 16.6096 27.1786 16.1458 27.1786C15.8722 27.1786 15.6046 27.0476 15.3429 26.7857V21.4107C15.6046 21.1488 15.8722 21.0178 16.1458 21.0178C16.6096 21.0178 16.8415 21.4167 16.8415 22.2143ZM22.8717 22.2321V23.0536H21.266V22.2321C21.266 21.4226 21.5336 21.0178 22.0688 21.0178C22.6041 21.0178 22.8717 21.4226 22.8717 22.2321ZM5.63763 18.3393H7.54658V16.6607H1.98031V18.3393H3.85357V28.5H5.63763V18.3393ZM10.7757 28.5H12.3635V19.6786H10.7757V26.4286C10.4189 26.9286 10.0799 27.1786 9.75882 27.1786C9.54473 27.1786 9.41984 27.0536 9.38416 26.8036C9.37227 26.7678 9.36632 26.5595 9.36632 26.1786V19.6786H7.77851V26.6607C7.77851 27.244 7.82608 27.6786 7.92123 27.9643C8.06396 28.4047 8.40888 28.625 8.95599 28.625C9.52689 28.625 10.1335 28.2619 10.7757 27.5357V28.5ZM18.4294 25.8571V22.3393C18.4294 21.4702 18.3758 20.8809 18.2688 20.5714C18.0666 19.9047 17.6444 19.5714 17.0021 19.5714C16.4074 19.5714 15.8544 19.8928 15.3429 20.5357V16.6607H13.7551V28.5H15.3429V27.6428C15.8781 28.2976 16.4312 28.625 17.0021 28.625C17.6444 28.625 18.0666 28.2976 18.2688 27.6428C18.3758 27.3214 18.4294 26.7262 18.4294 25.8571ZM24.4595 25.6786V25.4464H22.836C22.836 26.0536 22.8241 26.4167 22.8003 26.5357C22.7171 26.9643 22.4792 27.1786 22.0867 27.1786C21.5396 27.1786 21.266 26.7678 21.266 25.9464V24.3928H24.4595V22.5536C24.4595 21.6131 24.2989 20.9226 23.9778 20.4821C23.5139 19.875 22.8836 19.5714 22.0867 19.5714C21.2779 19.5714 20.6416 19.875 20.1777 20.4821C19.8447 20.9226 19.6782 21.6131 19.6782 22.5536V25.6428C19.6782 26.5833 19.8507 27.2738 20.1956 27.7143C20.6594 28.3214 21.3017 28.625 22.1224 28.625C22.9787 28.625 23.621 28.3095 24.0491 27.6786C24.2632 27.3571 24.3881 27.0357 24.4238 26.7143C24.4476 26.6071 24.4595 26.2619 24.4595 25.6786ZM26.4398 22.7857C26.4398 25.5714 26.2852 27.6547 25.9759 29.0357C25.8094 29.7381 25.4645 30.3274 24.9412 30.8036C24.4179 31.2797 23.8113 31.5536 23.1214 31.625C20.933 31.875 17.6325 32 13.2199 32C8.80732 32 5.5068 31.875 3.31835 31.625C2.62852 31.5536 2.01896 31.2797 1.48969 30.8036C0.96042 30.3274 0.618475 29.7381 0.463856 29.0357C0.154619 27.7024 0 25.619 0 22.7857C0 20 0.154619 17.9166 0.463856 16.5357C0.630368 15.8333 0.975287 15.244 1.49861 14.7678C2.02194 14.2916 2.63446 14.0119 3.33619 13.9286C5.51275 13.6905 8.80732 13.5714 13.2199 13.5714C17.6325 13.5714 20.933 13.6905 23.1214 13.9286C23.8113 14.0119 24.4208 14.2916 24.9501 14.7678C25.4794 15.244 25.8213 15.8333 25.9759 16.5357C26.2852 17.869 26.4398 19.9524 26.4398 22.7857Z" fill="#FF0000"></path>
<path d="M13.7929 9.375V5.625C13.7929 4.80357 13.5372 4.39286 13.0258 4.39286C12.5144 4.39286 12.2586 4.80357 12.2586 5.625V9.375C12.2586 10.2083 12.5144 10.625 13.0258 10.625C13.5372 10.625 13.7929 10.2083 13.7929 9.375ZM8.81541 0H10.6352L8.47644 7.125V11.9643H6.69238V7.125C6.52586 6.24405 6.1631 4.98214 5.6041 3.33929C5.16403 2.1131 4.77748 1 4.44446 0H6.33556L7.60225 4.69643L8.81541 0ZM15.4164 5.94643V9.07143C15.4164 10.0357 15.2499 10.7381 14.9169 11.1786C14.4649 11.7857 13.8346 12.0893 13.0258 12.0893C12.2289 12.0893 11.6045 11.7857 11.1525 11.1786C10.8195 10.7262 10.653 10.0238 10.653 9.07143V5.94643C10.653 4.99405 10.8195 4.29762 11.1525 3.85714C11.6045 3.25 12.2289 2.94643 13.0258 2.94643C13.8346 2.94643 14.4649 3.25 14.9169 3.85714C15.2499 4.29762 15.4164 4.99405 15.4164 5.94643ZM21.393 3.05357V11.9643H19.7695V10.9821C19.1392 11.7202 18.5267 12.0893 17.932 12.0893C17.3849 12.0893 17.034 11.869 16.8794 11.4286C16.7842 11.1429 16.7366 10.6964 16.7366 10.0893V3.05357H18.3601V9.60714C18.3601 10 18.3661 10.2083 18.378 10.2321C18.4137 10.494 18.5385 10.625 18.7526 10.625C19.0738 10.625 19.4127 10.369 19.7695 9.85714V3.05357H21.393Z" fill="black"></path>
</svg>